<svg id="Capa_1" data-name="Capa 1" xmlns="http://www.w3.org/2000/svg" xmlns:xlink="http://www.w3.org/1999/xlink" viewBox="0 0 108.95 92.59"><defs><style>.cls-1{fill:none;}.cls-2{fill:#69c3c6;}.cls-3{fill:#6ab3c5;}.cls-4{fill:#37a6b9;}.cls-5{clip-path:url(#clip-path);}.cls-6{fill:#a9ca54;}.cls-7{fill:#6ab64f;}.cls-8{fill:#1ba741;}.cls-9{fill:#fab953;}.cls-10{fill:#fed063;}.cls-11{fill:#f9ae23;}.cls-12{fill:#f59b1e;}.cls-13{fill:#f4950d;}.cls-14{fill:#995ca2;}.cls-15{fill:#eb588b;}.cls-16{fill:#e72986;}.cls-17{fill:#32b7bb;}</style><clipPath id="clip-path"><path class="cls-1" d="M55,77.6l24.22,0a2.73,2.73,0,0,0,.64-.07,7.26,7.26,0,0,0,5.63-8,2,2,0,0,0-.09-.47,18.38,18.38,0,0,0-4-6.81c-.12-.12-.75-.68-.88-.79a17.58,17.58,0,0,0-5.72-3c-1.5-.37-8.17-1.58-14,1.62a18.93,18.93,0,0,0-6.57,6A15.62,15.62,0,0,0,52.54,70a15.14,15.14,0,0,0-.6,4.11,2.44,2.44,0,0,0,0,.27l0,.49A3,3,0,0,0,55,77.6Z"/></clipPath></defs><g id="T_-_cian" data-name="T - cian"><path class="cls-2" d="M102.06,65.84H93.62V82.78a9.45,9.45,0,0,0,8.57,9.42c.6,0,1.21.08,1.82.07a4.17,4.17,0,0,0,4.23-4.11v-.07A4.22,4.22,0,0,0,104,83.91h-.43a1.43,1.43,0,0,1-1-.29c-.49-.41-.35-1.25-.49-1.8ZM97.84,46.33a4.22,4.22,0,0,0-4.22,4.18v6.93h8.44V50.51a4.22,4.22,0,0,0-4.22-4.18"/><path class="cls-3" d="M93.62,57.45H90.94a4.22,4.22,0,0,0,0,8.44h2.68Zm11.11,0h-2.67v8.44h2.67a4.22,4.22,0,0,0,0-8.44h0"/><polygon class="cls-4" points="102.06 57.45 93.97 57.45 93.62 57.45 93.62 65.3 93.62 65.89 93.97 65.89 102.06 65.89 102.06 65.3 102.06 57.45"/></g><g id="e_-_verde" data-name="e - verde"><g class="cls-5"><path class="cls-6" d="M86.72,75.4A17.4,17.4,0,1,1,69.32,58,17.4,17.4,0,0,1,86.72,75.4Zm-9.65-5a.14.14,0,0,0,.13-.19,9,9,0,0,0-3-3.46,7.64,7.64,0,0,0-4.85-1.27,9,9,0,0,0-4.86,1.57,10.17,10.17,0,0,0-2.94,3.15.13.13,0,0,0,.11.2Z"/></g><path class="cls-7" d="M81.78,89.12c-4.44,3.26-10.12,3.82-14.19,3.28A18.05,18.05,0,0,1,51.93,74.24s0-.07,0-.07.82,2.48,2.59,3.27a3,3,0,0,0,1.14.26h5.42a9.43,9.43,0,0,0,7.59,6.17,12.15,12.15,0,0,0,7.87-1.71,4.33,4.33,0,1,1,5.19,6.94Z"/><path class="cls-7" d="M61.08,77.73h-3l2.35-3.16c0,.14,0,.28,0,.43A10.75,10.75,0,0,0,61.08,77.73Z"/><circle class="cls-8" cx="56.18" cy="74.54" r="4.26"/><circle class="cls-8" cx="56.11" cy="74.62" r="4.19"/></g><g id="M_-_naranja" data-name="M - naranja"><path class="cls-9" d="M27.87,68.14V87.82a4.49,4.49,0,0,1-4.16,4.76h-.15a4.52,4.52,0,0,1-4.17-4.76V68.25a4.6,4.6,0,0,0,4.24,4.57,4.56,4.56,0,0,0,4.24-4.68"/><path class="cls-10" d="M23.44,61.36a14.4,14.4,0,0,0-4,9.52v.35a5.43,5.43,0,0,0-5.82-5,5.37,5.37,0,0,0-5,4.86,67.73,67.73,0,0,1,0-9.54,6.8,6.8,0,0,0-.77-2.43A13.49,13.49,0,0,1,14,57.59a13.66,13.66,0,0,1,9.45,3.81"/><path class="cls-10" d="M47,70.31a13.78,13.78,0,0,0-23.56-9,14.07,14.07,0,0,1,4.38,9.12v.24a5.39,5.39,0,0,1,10.75,0V88.35a4.18,4.18,0,0,0,4.16,4.16h.14A4.18,4.18,0,0,0,47,88.35V70.92a2.48,2.48,0,0,0-.07-.61"/><path class="cls-11" d="M19.4,70.78a14.2,14.2,0,0,1,4-9.46,14.16,14.16,0,0,1,4.43,9.29c-.08-.25-.17-.51-.27-.77s-.31-.77-.46-1.12a3.93,3.93,0,0,0-.29-.4A3.18,3.18,0,0,0,26.5,68l-.25-.21-.2-.13a3.65,3.65,0,0,0-.61-.34l-.24-.11a4.45,4.45,0,0,0-1.53-.28,5.16,5.16,0,0,0-1.24.18l-.36.13a3.29,3.29,0,0,0-.42.21,1.64,1.64,0,0,0-.29.16l-.28.2a2.37,2.37,0,0,0-.29.25,1.07,1.07,0,0,0-.19.18l-.14.15-.24.29A2.39,2.39,0,0,0,20,69a2.22,2.22,0,0,0-.23.43l-.13.28a1.81,1.81,0,0,1-.09.31c0,.1-.06.22-.09.34S19.42,70.64,19.4,70.78Z"/><path class="cls-9" d="M8.59,70.29V88.24a4.27,4.27,0,0,1-4.14,4.34H4.27A4.26,4.26,0,0,1,.12,88.24V70.45A4.29,4.29,0,0,0,4.6,74.58a4.32,4.32,0,0,0,4-4.29"/><path class="cls-12" d="M8.59,71.6a4.41,4.41,0,0,1-4.59,4,4.46,4.46,0,0,1-3.88-4v-.28A13.63,13.63,0,0,1,.2,69.54a13.52,13.52,0,0,1,3.39-7.3,13.7,13.7,0,0,1,4.24-3.16,4.34,4.34,0,0,1,.58,1.15,4.27,4.27,0,0,1,.19,1.28V71.6Z"/><path class="cls-9" d="M7.83,59.08A14,14,0,0,0,.12,70.78V61.43a4.18,4.18,0,0,1,4.13-4.16h.14a4.18,4.18,0,0,1,3.44,1.81"/><path class="cls-13" d="M27.86,71.06v.37a4.24,4.24,0,0,1-8.45-.05v-.33h0a2.16,2.16,0,0,1,0-.36,4.23,4.23,0,0,1,8.43,0v.41"/><path class="cls-13" d="M27.86,71c-.15,1.67-1.62,4.18-4.23,4.18A4.22,4.22,0,0,1,19.39,71a4.31,4.31,0,0,1,4.24-4.18A4.36,4.36,0,0,1,27.79,70,3.18,3.18,0,0,1,27.86,71Z"/><path class="cls-11" d="M47,70.78C46.82,72.46,45.36,75,42.74,75a4.2,4.2,0,0,1-4.23-4.18,4.3,4.3,0,0,1,4.23-4.18,4.35,4.35,0,0,1,4.16,3.15A3.07,3.07,0,0,1,47,70.78Z"/></g><g id="I_-_morada" data-name="I - morada"><path class="cls-14" d="M97.92,0a5,5,0,0,0-5.14,4.86v.55a5.06,5.06,0,0,0,10.12,0V5a5,5,0,0,0-5-5"/><path class="cls-14" d="M97.91,15.86a4.34,4.34,0,0,0-4.43,4.25v18a4.36,4.36,0,0,0,8.71.42,2.94,2.94,0,0,0,0-.42v-18a4.31,4.31,0,0,0-4.28-4.29"/></g><g id="M_-_rosa_palo" data-name="M - rosa palo"><path class="cls-15" d="M69.62,27.07V46.74c0,2.63-1.86,4.75-4.16,4.76h-.15a4.51,4.51,0,0,1-4.17-4.76V27.17a4.6,4.6,0,0,0,4.24,4.57,4.56,4.56,0,0,0,4.24-4.67"/><path class="cls-15" d="M65.19,20.28a14.36,14.36,0,0,0-4,9.52v.35a5.43,5.43,0,0,0-5.83-5,5.36,5.36,0,0,0-5,4.87,66.38,66.38,0,0,1,0-9.55A7,7,0,0,0,49.58,18a13.49,13.49,0,0,1,6.16-1.49,13.66,13.66,0,0,1,9.45,3.81"/><path class="cls-15" d="M88.73,29.25a13.77,13.77,0,0,0-23.55-9,14.07,14.07,0,0,1,4.38,9.12v.24a5.38,5.38,0,0,1,10.74,0V47.29a4.19,4.19,0,0,0,4.16,4.16h.14a4.19,4.19,0,0,0,4.17-4.16V29.86a3.08,3.08,0,0,0-.07-.61"/><path class="cls-16" d="M69.61,30v.37a4.24,4.24,0,0,1-8.45-.05V30h0a2.16,2.16,0,0,1,0-.36,4.23,4.23,0,0,1,8.43,0V30"/><path class="cls-16" d="M61.15,29.7a14.2,14.2,0,0,1,4-9.46,14.16,14.16,0,0,1,4.43,9.29c-.08-.25-.17-.51-.27-.77S69,28,68.88,27.64a2.69,2.69,0,0,0-.28-.4,3.18,3.18,0,0,0-.35-.37L68,26.66l-.19-.13a3.65,3.65,0,0,0-.61-.34l-.25-.11a4.36,4.36,0,0,0-1.52-.28,5.16,5.16,0,0,0-1.24.18l-.36.13a2.74,2.74,0,0,0-.42.21,1.64,1.64,0,0,0-.29.16l-.28.2a2.48,2.48,0,0,0-.3.25,1,1,0,0,0-.18.18l-.14.15-.24.29a2.39,2.39,0,0,0-.21.34,2.26,2.26,0,0,0-.24.43l-.12.28a1.81,1.81,0,0,1-.09.31l-.09.34A4.14,4.14,0,0,0,61.15,29.7Z"/><path class="cls-15" d="M50.34,29.21V47.16A4.27,4.27,0,0,1,46.2,51.5H46a4.26,4.26,0,0,1-4.15-4.34V29.37a4.28,4.28,0,0,0,4.48,4.13,4.33,4.33,0,0,0,3.95-4.29"/><path class="cls-16" d="M50.34,30.52a4.41,4.41,0,0,1-4.59,3.95,4.46,4.46,0,0,1-3.88-3.95v-.28A12.06,12.06,0,0,1,42,28.46a13.52,13.52,0,0,1,3.39-7.3A13.7,13.7,0,0,1,49.58,18a4.07,4.07,0,0,1,.57,1.15,4.28,4.28,0,0,1,.2,1.28V30.52Z"/><path class="cls-15" d="M49.58,18a14,14,0,0,0-7.71,11.7V20.35A4.18,4.18,0,0,1,46,16.19h.14A4.19,4.19,0,0,1,49.58,18"/><path class="cls-16" d="M69.61,29.91c-.15,1.67-1.62,4.18-4.24,4.18a4.21,4.21,0,0,1-4.23-4.18,4.31,4.31,0,0,1,4.23-4.18,4.36,4.36,0,0,1,4.17,3.14A3.5,3.5,0,0,1,69.61,29.91Z"/></g><g id="A_-_cian" data-name="A - cian"><path class="cls-2" d="M17,42.66a8.76,8.76,0,1,1,8.79-8.73h0A8.8,8.8,0,0,1,17,42.66m0-25.61A16.86,16.86,0,1,0,27.78,46.93v-26A16.79,16.79,0,0,0,17.06,17"/><path class="cls-2" d="M31.51,16.82a3.72,3.72,0,0,0-3.73,3.7,2.26,2.26,0,0,0,0,.26v.28A16.69,16.69,0,0,1,34,34a16.45,16.45,0,0,1-6.19,12.87v.65a3.7,3.7,0,0,0,3.45,3.95h.27a4,4,0,0,0,4.08-3.88V20.79a4,4,0,0,0-4-4h-.09"/><path class="cls-17" d="M27.72,20.88,27.7,47a16.68,16.68,0,0,0,6.42-13,16.86,16.86,0,0,0-6.4-13.09"/></g></svg>